<?xml version="1.0" ?><!DOCTYPE svg  PUBLIC '-//W3C//DTD SVG 1.1//EN'  'http://www.w3.org/Graphics/SVG/1.1/DTD/svg11.dtd'><svg height="512px" style="enable-background:new 0 0 512 512;" version="1.1" viewBox="0 0 512 512" width="512px" xml:space="preserve" xmlns="http://www.w3.org/2000/svg" xmlns:xlink="http://www.w3.org/1999/xlink"><g id="_x31_35-aim"><g><g><g><path d="M323.051,152.852c37.133,0,68.686-30.474,68.686-68.034c0-37.594-31.553-68.067-68.686-68.067      c-37.164,0-68.215,30.473-68.215,68.067C254.836,122.377,285.887,152.852,323.051,152.852L323.051,152.852z M323.051,152.852" style="fill:#FFC107;"/><path d="M314.43,323.918c0.473-12.113,0.834-15.138,1.313-24.643      c72.713,19.194,134.123-41.962,134.123-41.962s-15.57-29.302-35.254-59.66c-32.092,29.187-65.344,24.316-79.48,21.204      c-18.643-4.103-23.682-12.081-22.162-19.141c-10.83-3.469-49-26.287-72.09-33.879c-44.383,27.298-62.158,95.542-60.039,164.957      c-29.793,57.181-57.891,76.47-118.706,90.584c11.456,27.123,22.013,37.294,38.952,73.271      c76.055-20.816,124.669-65.883,154.558-104.493c50.883,13.1,88.102,45.754,118.822,105.093      c31.912-26.888,35.434-29.639,62.574-51.713C415.867,392.342,363.912,348.021,314.43,323.918L314.43,323.918z M314.43,323.918" style="fill:#FFC107;"/></g></g></g></g><g id="Layer_1"/></svg>